<svg version="1.1" id="Layer_1" xmlns="http://www.w3.org/2000/svg" xmlns:xlink="http://www.w3.org/1999/xlink" x="0px" y="0px"
	 width="100%" viewBox="0 0 1024 1024" enable-background="new 0 0 1024 1024" xml:space="preserve">
<path fill="#000000" opacity="1.000000" stroke="none" 
	d="
M945.296265,742.325195 
	C945.773315,761.983643 944.233459,781.004944 939.168823,799.543152 
	C935.617371,812.542603 931.240234,825.324585 921.296692,835.224487 
	C920.640564,835.877808 919.740112,836.555847 920.269592,838.727844 
	C931.436523,838.727844 942.845276,838.682800 954.253418,838.746643 
	C960.045593,838.779114 965.838684,838.501648 971.449829,840.761536 
	C975.914612,842.559631 976.897278,845.759521 976.210815,849.949158 
	C975.510437,854.223328 972.649170,855.301147 968.630859,855.460510 
	C952.561523,856.097595 936.457886,857.101257 920.423462,856.144714 
	C910.505005,855.552979 900.594849,856.493103 890.729553,855.418823 
	C882.940002,854.570496 875.564270,856.944458 868.171326,858.535339 
	C854.614929,861.452576 840.810059,861.021851 827.146912,862.363037 
	C794.410950,865.576233 761.539978,865.884460 728.689270,865.059143 
	C718.488586,864.802856 708.189087,864.250366 698.103516,861.826111 
	C694.197266,860.887085 691.475769,858.832825 689.195618,855.947571 
	C684.974670,850.606750 679.075867,849.594788 672.901855,849.461243 
	C670.219238,849.403198 668.101318,850.568359 668.035217,853.879150 
	C667.939880,858.659790 665.639099,862.667114 663.167480,866.557739 
	C660.902405,870.123352 656.986877,870.986389 653.346069,871.837646 
	C639.120789,875.164062 624.867920,878.389709 610.565186,881.363647 
	C582.802124,887.136353 554.963379,892.548706 527.223328,898.427917 
	C507.600739,902.586548 488.078705,907.334656 468.194702,909.997742 
	C458.688934,911.270874 448.973511,910.927429 439.405029,909.172974 
	C427.514587,906.992859 415.478088,905.781860 403.590088,903.472107 
	C379.364563,898.765320 354.829803,895.886353 330.590942,891.107056 
	C312.886139,887.616272 294.755432,886.319092 277.000671,883.037170 
	C262.813324,880.414795 248.442673,879.277283 234.285568,876.596985 
	C219.318451,873.763428 204.303177,871.184265 189.334579,868.358215 
	C174.382553,865.535278 159.180679,864.060730 144.665649,858.900879 
	C137.244827,856.262939 132.700317,851.891174 131.754990,844.165527 
	C131.121811,838.990845 128.998489,837.081055 123.405594,837.059814 
	C109.697464,837.007751 95.989021,835.527649 82.288521,835.633545 
	C75.842018,835.683350 69.431442,835.085693 62.991013,835.283569 
	C57.680901,835.446716 55.023079,833.000854 54.952377,828.584839 
	C54.888573,824.599426 58.644379,820.915466 62.983730,820.671387 
	C78.270752,819.811890 93.551819,819.835144 108.842125,820.701416 
	C113.643730,820.973511 118.473747,820.743896 123.254158,820.743896 
	C123.964165,818.795837 123.763268,817.096497 123.271271,815.591919 
	C116.204506,793.980835 110.576973,771.953247 104.468452,750.071533 
	C98.719391,729.477356 94.528839,708.459839 89.083908,687.797729 
	C83.370407,666.116455 79.214645,644.089233 73.397804,622.449707 
	C72.151833,617.814453 71.491837,613.024902 70.427116,608.337036 
	C69.098305,602.486450 72.193855,593.859985 77.255226,590.834839 
	C84.593811,586.448730 92.331734,583.952026 101.174980,583.364746 
	C115.287369,582.427368 129.380707,583.380676 143.417755,583.426697 
	C159.270096,583.478638 175.259888,584.198181 191.157639,585.354614 
	C204.007599,586.289246 216.874130,587.094971 229.747452,587.588074 
	C252.483582,588.458862 275.186829,589.962830 297.921722,590.906860 
	C319.585449,591.806458 341.180084,594.325623 362.835602,595.822144 
	C381.946594,597.143005 388.084656,601.876648 395.202393,624.370850 
	C400.106384,639.869080 404.272369,655.601074 407.689209,671.509521 
	C408.319794,674.445435 410.419098,676.832825 410.559235,679.934509 
	C410.598907,680.813293 411.356323,681.471741 412.272339,681.455078 
	C413.811157,681.427246 414.632416,680.210571 415.231750,679.061890 
	C417.843872,674.055725 420.402557,669.019775 422.879425,663.945190 
	C433.388214,642.415405 441.789368,619.975708 451.334839,598.030151 
	C452.995667,594.211853 452.165863,591.252563 450.172913,587.790100 
	C444.456360,577.858643 440.277588,567.577454 438.208313,555.915527 
	C434.940552,537.499390 439.896271,520.998596 446.327118,504.608551 
	C451.422668,491.621643 457.518555,479.016754 463.428589,466.362915 
	C468.884918,454.680511 469.532288,442.000916 471.642334,429.613007 
	C473.519257,418.593933 470.960205,407.226196 473.333710,396.429016 
	C475.781403,385.294617 473.045074,375.244049 470.500916,364.804291 
	C464.625488,340.694946 461.493683,316.178986 461.743164,291.361267 
	C461.835846,282.138062 458.081848,274.643707 453.636810,267.277130 
	C450.272430,261.701447 448.227753,255.477005 447.939545,249.412170 
	C446.215607,213.131332 454.928802,180.295517 481.176361,153.529922 
	C509.313019,124.837936 543.471985,107.057846 581.792114,96.084023 
	C604.579468,89.558327 627.777771,88.227402 650.985962,89.894051 
	C685.117126,92.345093 715.911621,104.518524 740.792908,128.500259 
	C760.739136,147.725357 774.893799,171.005966 785.890747,196.622208 
	C794.295715,216.200851 798.597290,236.741577 804.670288,256.883392 
	C808.328125,269.015106 810.447449,281.426239 813.363159,293.677734 
	C816.623169,307.375885 818.315125,321.443878 821.472839,335.170746 
	C823.926514,345.837067 827.166931,356.468414 833.163452,365.772522 
	C838.123901,373.468903 844.773376,379.791290 851.756836,385.773010 
	C866.642456,398.523438 883.741882,408.563690 897.319519,422.890778 
	C911.975464,438.355652 921.741882,456.692719 929.120178,476.552643 
	C934.629517,491.382080 939.487793,506.402008 941.525818,522.052673 
	C944.493530,544.842529 944.242676,567.486694 934.082275,588.917053 
	C931.923096,593.471252 929.316101,597.742981 925.497986,601.078796 
	C923.181702,603.102600 922.688660,605.296021 923.538940,608.141968 
	C928.961182,626.292358 931.829834,644.955139 934.653320,663.631775 
	C936.953186,678.844910 939.629822,694.003662 941.742188,709.241577 
	C943.242859,720.067383 943.082520,731.091003 945.296265,742.325195 
M855.954956,743.131470 
	C854.664551,745.250305 852.598022,746.558350 850.377686,747.079407 
	C844.570312,748.442139 838.720642,749.983032 832.807312,750.464233 
	C818.225342,751.650757 803.914917,754.706909 789.522766,756.938538 
	C774.648438,759.244873 759.708130,761.497742 744.906433,764.425964 
	C730.778198,767.221008 716.267639,767.385986 702.152405,770.371643 
	C697.201233,771.418945 696.938416,771.975830 700.006775,776.260620 
	C702.903320,780.305420 706.322998,783.988403 708.170837,788.733582 
	C713.543030,802.528931 716.350525,816.592468 714.470947,831.555908 
	C713.833496,836.630981 711.729187,841.423401 711.786682,847.369385 
	C718.896240,846.332825 725.755066,847.308044 732.639526,847.540649 
	C746.945740,848.023865 761.255493,846.997437 775.550537,847.051147 
	C783.849365,847.082336 792.133240,846.933228 800.378540,846.413086 
	C815.597412,845.453064 830.820679,844.696533 846.004211,842.851196 
	C861.755554,840.936890 877.268677,838.698914 891.622009,831.558105 
	C900.490173,827.146118 908.866699,821.721252 914.467834,813.447510 
	C922.488281,801.600098 925.312317,787.798035 926.508789,773.827759 
	C927.456726,762.759460 927.223328,751.601685 927.197083,740.463928 
	C927.169556,728.786804 925.649414,717.342896 923.917297,705.900696 
	C921.587341,690.509521 919.661255,675.065491 917.133911,659.689575 
	C914.090210,641.172241 909.935425,622.938599 905.865295,604.684448 
	C901.489563,585.059692 895.266907,565.931641 887.733398,547.244568 
	C880.807373,530.064331 870.470093,515.273438 856.089233,503.733948 
	C826.515076,480.002838 793.081360,464.324860 755.702087,457.243927 
	C751.831970,456.510773 749.503052,457.348877 748.595215,461.199554 
	C747.203186,467.103333 744.057434,472.217194 741.272095,477.471313 
	C733.663452,491.823425 722.720764,503.279724 709.814026,512.946716 
	C687.333374,529.784363 662.898254,539.324768 634.085815,534.561523 
	C604.961792,529.746765 593.541382,505.882599 593.500671,478.811798 
	C593.497131,476.461517 595.017090,473.971985 593.165466,471.467133 
	C592.293579,471.603760 591.487000,471.655396 590.722107,471.861389 
	C580.725403,474.553741 571.512817,479.315094 562.117859,483.422211 
	C543.100830,491.735657 526.070984,502.679474 513.552002,520.227600 
	C502.423889,535.826172 491.246368,551.319336 483.441895,568.830444 
	C472.685913,592.963928 463.223480,617.686035 452.074280,641.628540 
	C442.515076,662.156616 435.555481,684.336182 418.459930,700.667236 
	C416.451508,702.585815 418.277985,715.972046 420.467072,717.438965 
	C420.982208,717.784241 421.723206,717.882996 422.371490,717.925842 
	C434.281952,718.711243 444.579865,723.349976 453.349091,731.282593 
	C458.153809,735.628906 462.616272,740.397949 464.796600,746.718872 
	C466.026703,750.285034 464.865662,753.542908 461.934113,755.596619 
	C458.995575,757.655396 456.205566,756.000427 453.883698,753.845032 
	C452.297882,752.372803 450.834656,750.768372 449.320892,749.218933 
	C443.795563,743.563354 437.672607,738.798828 430.102661,736.130920 
	C428.651398,735.619446 427.224182,734.960205 425.880981,736.111206 
	C424.649933,737.166077 425.181885,738.562866 425.541412,739.835815 
	C430.233246,756.447998 435.095428,773.014465 439.535797,789.693420 
	C440.756805,794.279724 442.966278,795.809387 447.555267,795.763855 
	C451.599335,795.723572 453.683624,793.865906 455.125580,790.528625 
	C458.825287,781.966248 464.615997,774.671082 471.391785,768.670349 
	C483.701141,757.768738 498.234711,750.369507 513.932373,745.340454 
	C524.592651,741.925232 524.578125,741.879700 524.656006,730.603271 
	C524.658264,730.269958 524.684814,729.934387 524.656128,729.603638 
	C523.224976,713.092346 521.797852,696.580750 520.350464,680.070862 
	C519.194763,666.888245 518.310669,653.662781 519.268860,640.463684 
	C520.422668,624.570068 523.928528,608.996643 526.844604,593.355896 
	C528.044128,586.922058 530.861389,581.029358 533.579163,575.157471 
	C534.865051,572.379211 537.265564,569.990234 540.720642,570.995422 
	C543.877625,571.913879 545.474060,574.504395 545.245483,577.932190 
	C545.146484,579.416992 544.778137,580.892456 544.770813,582.373291 
	C544.743347,587.957031 541.984985,592.922424 541.306091,598.378479 
	C539.914368,609.563721 538.468262,620.749817 536.669739,631.875000 
	C534.204956,647.121582 534.296082,662.466797 535.901794,677.660461 
	C537.240540,690.328491 538.775146,702.995605 540.215088,715.665161 
	C540.989624,722.480408 540.983215,729.228638 540.392944,736.037720 
	C540.192200,738.352722 540.319275,740.869446 544.083191,740.326477 
	C558.190063,738.291565 571.771240,741.249695 585.403503,744.495605 
	C603.127014,748.715637 619.149536,757.481934 636.356018,762.924316 
	C646.803955,766.229065 657.331360,770.847839 668.593567,762.524536 
	C675.695251,757.275940 685.453003,756.569275 694.330750,755.821472 
	C710.225708,754.482483 725.776428,750.947266 741.581787,749.229431 
	C749.717651,748.345093 757.455017,745.815491 765.491333,744.555664 
	C777.286255,742.706787 788.984314,740.244934 800.736694,738.116150 
	C803.770691,737.566467 805.407410,735.856750 804.529663,732.934021 
	C801.687195,723.469116 801.254089,713.650940 800.195923,703.955200 
	C799.097534,693.890442 796.819275,684.034729 795.626953,674.003845 
	C794.197266,661.976379 793.391174,649.840515 791.269836,637.937805 
	C788.262451,621.063354 786.107910,604.233276 787.598572,587.067871 
	C788.085938,581.455078 789.912903,578.839355 794.056396,578.660339 
	C798.997253,578.446777 801.507690,580.884827 802.207092,586.654297 
	C802.586609,589.785400 802.416199,592.932861 802.890076,596.094849 
	C804.534851,607.070435 806.489929,618.058533 807.138611,629.111633 
	C808.356201,649.860413 811.911072,670.307007 814.814636,690.802307 
	C816.624268,703.575867 818.363770,716.360840 819.918762,729.168945 
	C820.573303,734.560181 821.699707,735.848877 826.992737,734.420471 
	C833.788025,732.586670 840.620850,731.756714 847.615173,731.390381 
	C855.066345,731.000000 858.640076,735.263306 855.954956,743.131470 
M92.890335,630.862183 
	C93.077187,632.181152 93.148804,633.528748 93.467834,634.814941 
	C100.608894,663.603455 107.573044,692.438110 115.009415,721.150391 
	C120.286911,741.526978 125.284355,761.983887 131.419464,782.137146 
	C134.704041,792.926697 137.581100,803.840515 140.625565,814.702820 
	C142.863953,822.689148 145.886688,830.570740 147.013092,838.712952 
	C147.760254,844.113831 150.090302,845.126038 154.517975,845.724609 
	C167.161591,847.433777 179.816193,849.160217 192.368500,851.423279 
	C211.307236,854.837646 230.267349,858.151245 249.354370,860.522034 
	C272.036957,863.339539 294.580414,867.036743 317.166229,870.459290 
	C338.432587,873.681763 359.700256,876.914246 380.826019,881.036804 
	C395.124084,883.826904 409.496948,886.299316 423.912140,888.391602 
	C429.837494,889.251709 435.718994,891.977234 442.292633,889.994385 
	C441.189941,880.476807 439.248779,871.247925 437.783936,861.973938 
	C434.474335,841.021057 429.107239,820.487183 423.508606,800.036133 
	C419.787903,786.445007 415.642792,772.967163 412.090179,759.333679 
	C408.957336,747.311340 404.662903,735.648560 402.294891,723.354675 
	C400.640411,714.765076 398.694031,706.178284 396.817078,697.605652 
	C393.984375,684.667664 390.511932,671.837952 386.635803,659.169006 
	C382.609497,646.009399 380.836975,632.181152 374.804871,619.606506 
	C373.514832,616.917236 371.983002,615.823914 368.954559,615.205627 
	C356.154205,612.592468 343.133514,613.939697 330.262848,612.511047 
	C311.470428,610.425110 292.519897,610.339050 273.666046,608.595947 
	C256.329163,606.993042 238.836380,607.094177 221.414658,606.385986 
	C205.472198,605.738037 189.503830,605.377014 173.608871,604.111206 
	C168.422546,603.698242 163.368835,604.479736 158.326019,604.100525 
	C148.569122,603.366760 138.836929,602.519653 129.040375,602.295654 
	C117.260483,602.026367 105.493279,601.005188 93.715660,600.908569 
	C86.920174,600.852844 85.084236,603.218628 86.944260,608.964783 
	C89.184868,615.886597 90.789650,623.014343 92.890335,630.862183 
M482.785034,331.339417 
	C484.289948,347.541565 487.047913,363.451965 491.914948,379.064484 
	C499.626343,403.801056 514.095764,422.828949 536.373352,436.299042 
	C552.629822,446.128479 570.145508,451.487061 588.795593,453.504425 
	C600.697754,454.791870 611.695801,450.382538 622.761414,446.944122 
	C640.981445,441.282715 656.296082,431.230988 668.852417,416.728149 
	C676.903809,407.428558 685.348938,398.511169 691.649048,387.830353 
	C699.139526,375.131775 704.605835,361.673889 707.547241,347.211853 
	C707.986572,345.051971 708.459412,343.334442 711.206787,342.593445 
	C726.654358,338.427155 739.180908,330.501099 745.793701,315.076233 
	C749.761963,305.820038 751.290588,296.126160 749.174133,286.447723 
	C747.202881,277.433228 739.367371,270.375946 728.165039,273.202576 
	C722.321167,274.677185 717.251404,277.408356 713.768311,282.425049 
	C710.738708,286.788788 707.068909,287.627594 702.114380,285.993805 
	C694.885132,283.609924 690.945740,277.767242 686.981506,272.096741 
	C684.424500,268.439026 681.397766,266.313019 677.180542,265.081268 
	C666.700378,262.020233 655.897400,260.420715 645.609619,256.257050 
	C634.519470,251.768692 623.258972,248.012527 612.957947,241.614288 
	C603.882874,235.977524 595.349854,229.708099 586.976440,223.148071 
	C576.307129,214.789337 566.727417,205.397293 558.805908,194.327820 
	C554.346497,188.096191 550.137024,181.717499 546.088501,175.218658 
	C542.819702,169.971405 541.349548,169.978531 538.174072,175.118805 
	C536.600342,177.666260 535.193359,180.318604 533.577637,182.838043 
	C518.684448,206.061981 500.435944,226.558533 481.561340,246.527740 
	C479.071808,249.161636 477.917419,251.913849 478.170624,255.485901 
	C478.816589,264.598297 478.740662,273.748657 479.087799,282.870667 
	C479.694794,298.820221 481.543762,314.635315 482.785034,331.339417 
M536.436096,782.179688 
	C528.349365,783.571655 521.697388,788.183289 514.783081,792.082275 
	C500.450226,800.164856 490.068634,812.062866 482.471466,826.546814 
	C481.203705,828.963745 482.084106,830.782532 483.557617,832.428589 
	C485.256409,834.326355 487.613342,834.118896 489.495148,832.980286 
	C491.455719,831.794067 493.353638,830.217590 494.727905,828.396057 
	C503.183502,817.188293 514.401550,809.162598 525.719299,801.274841 
	C536.637634,793.665405 548.856628,790.693359 562.106323,791.626648 
	C565.054199,791.834290 567.580872,793.067139 570.041931,794.373047 
	C572.950134,795.916260 572.785706,798.950073 572.082825,801.474609 
	C571.109436,804.970337 567.971619,806.185120 564.671936,806.282532 
	C558.329529,806.469727 551.996826,806.858521 546.059814,809.166748 
	C531.175842,814.953552 518.882019,824.386841 508.583099,836.513550 
	C507.341980,837.975037 506.544617,839.315979 507.303619,841.444580 
	C509.109283,846.508301 512.290710,843.988770 514.902344,842.817322 
	C525.278137,838.163208 534.053589,830.845703 543.811218,825.147705 
	C553.221558,819.652527 562.984192,815.507141 574.119202,818.888306 
	C581.583374,821.154846 588.935669,823.829468 596.231079,826.602844 
	C608.344788,831.207886 620.220520,836.044922 633.776367,834.704529 
	C644.448486,833.649292 655.256104,833.893494 666.006104,833.716064 
	C675.919556,833.552429 685.963013,832.736450 694.733398,838.622559 
	C695.409668,837.584167 695.787842,837.204102 695.934326,836.749512 
	C701.908081,818.205688 697.473022,801.425537 687.221741,785.646729 
	C685.633240,783.201782 683.385376,782.260620 680.426208,782.317566 
	C673.263733,782.455444 666.092957,782.212830 658.932495,782.394348 
	C650.345276,782.612061 641.961853,781.603516 634.062622,778.213684 
	C623.518311,773.688843 612.798950,769.623047 601.914429,766.062988 
	C583.858154,760.157410 565.963013,753.504639 546.311096,755.189087 
	C536.902649,755.995361 527.845215,757.904541 519.307617,761.642822 
	C493.444733,772.967041 473.828583,791.181885 460.455566,816.105042 
	C458.915771,818.974670 460.171417,820.460266 462.450928,821.707458 
	C464.666534,822.919739 466.633057,822.885254 467.764557,820.192261 
	C472.909882,807.946228 481.488434,798.271301 491.253265,789.645386 
	C503.987549,778.396362 517.971252,769.195801 535.156494,766.301880 
	C541.380554,765.253845 547.706909,764.682007 553.790344,767.437500 
	C557.306580,769.030090 558.558228,771.697815 558.393066,775.442932 
	C558.216553,779.446472 555.213379,780.245300 552.336548,780.965637 
	C550.444458,781.439453 548.237061,781.702454 546.417419,781.187866 
	C543.142334,780.261841 540.203369,780.959595 536.436096,782.179688 
M646.317566,454.976837 
	C637.543030,459.474548 628.101074,462.126801 618.726257,464.967804 
	C615.708923,465.882202 612.003906,466.404541 611.010132,469.791351 
	C608.601807,477.998840 606.691956,486.328674 608.940796,495.004059 
	C612.248962,507.766510 621.125183,514.770020 633.066467,518.617249 
	C650.705322,524.300110 666.930176,518.785278 682.735474,511.727570 
	C695.129822,506.192993 705.992859,498.192017 715.532837,488.514893 
	C723.887024,480.040588 730.562134,470.346863 735.622925,459.572388 
	C737.858337,454.813293 736.892334,451.047882 732.256531,448.054596 
	C724.847961,443.270935 719.210571,436.717377 715.179138,428.920471 
	C710.811157,420.472443 707.533752,411.613251 706.664124,402.027100 
	C706.528442,400.532318 706.615845,398.877716 704.727478,398.396271 
	C702.781372,397.900085 702.097656,399.524170 701.370789,400.761414 
	C698.574829,405.520721 694.712341,409.464966 691.482849,413.872009 
	C679.337463,430.445679 664.846252,444.354156 646.317566,454.976837 
M603.489319,866.400818 
	C610.388306,863.822083 617.796387,863.547668 624.856323,861.670654 
	C632.554871,859.623840 640.303589,857.766235 648.026001,855.808472 
	C649.297668,855.486023 650.888000,855.294128 650.509766,853.397644 
	C650.189087,851.789856 648.769104,851.519592 647.390259,851.490723 
	C646.570007,851.473572 645.722900,851.571411 644.926270,851.770996 
	C634.625488,854.352600 624.116455,855.922607 613.748108,858.221863 
	C597.254456,861.879395 580.454041,864.384277 564.008118,868.087891 
	C531.076782,875.504028 497.958435,881.254211 464.372345,884.327271 
	C459.071594,884.812317 460.416046,888.277527 460.442352,891.158813 
	C460.471710,894.367615 462.575256,894.639099 465.329865,894.265808 
	C483.929962,891.745239 502.163605,887.393311 520.489685,883.484375 
	C533.944336,880.614563 547.518860,878.283264 560.919800,875.191345 
	C574.809570,871.986694 588.774414,869.209778 603.489319,866.400818 
M499.022858,864.339539 
	C534.618225,858.997192 593.026489,846.488281 596.027283,843.448242 
	C589.063843,838.933228 581.270142,836.885620 573.430420,834.685242 
	C565.953064,832.586548 559.476685,833.687378 553.079712,837.832336 
	C541.387329,845.408386 529.721069,853.048279 516.989807,858.861084 
	C510.318329,861.907104 503.252686,863.211731 497.140625,858.861572 
	C494.331818,856.862366 491.950500,856.024597 489.126648,856.504150 
	C480.463104,857.975281 471.851044,859.760315 463.242249,861.536255 
	C460.737549,862.053040 458.950256,863.476562 459.431061,866.433228 
	C459.923309,869.460327 462.363647,868.562805 464.196289,868.614136 
	C475.719086,868.936401 486.835266,865.791687 499.022858,864.339539 
z"/>
<path fill="#000000" opacity="1.000000" stroke="none" 
	d="
M400.856018,745.366333 
	C409.304626,772.501953 415.415863,799.871521 423.633881,826.667786 
	C426.781372,836.930847 428.880615,847.549255 431.920074,857.892944 
	C432.849976,861.057373 432.450958,864.438843 431.849548,867.771118 
	C431.239288,871.152344 429.479065,872.481262 426.148102,872.746582 
	C422.947571,873.001526 420.889221,872.251892 419.371918,869.151550 
	C415.471283,861.181458 414.425873,852.384888 411.774872,844.056213 
	C407.758514,831.438232 404.332794,818.615540 401.110138,805.766052 
	C397.486816,791.318970 392.662323,777.219238 389.328217,762.671143 
	C387.685974,755.505432 385.643005,748.289978 382.942688,741.300659 
	C379.054474,731.236450 378.382751,720.289978 375.211426,709.954956 
	C372.151703,699.983521 369.991608,689.736694 367.417053,679.615662 
	C364.024689,666.279785 361.779266,652.723328 359.759003,639.132385 
	C358.946381,633.665588 364.020142,629.454346 369.339569,630.893799 
	C371.084290,631.365906 372.143768,632.352844 372.330078,634.362854 
	C373.409149,646.006470 377.520294,656.957886 380.812469,668.016968 
	C383.888885,678.351196 386.064453,688.882996 388.988678,699.239258 
	C393.265167,714.384521 395.841125,729.982971 400.856018,745.366333 
z"/>
<path fill="#000000" opacity="1.000000" stroke="none" 
	d="
M216.091064,727.649414 
	C218.073807,717.891785 222.940903,711.044678 231.638550,706.571716 
	C242.410324,701.032104 251.020218,705.566406 258.975250,711.949341 
	C270.574646,721.256409 272.918823,741.524048 264.366791,753.640503 
	C257.804199,762.938354 244.517303,765.565125 233.543152,760.241516 
	C220.264893,753.800232 214.239120,740.237061 216.091064,727.649414 
M232.482422,738.767883 
	C234.546402,743.017273 238.466980,745.045593 242.578827,746.314636 
	C248.758957,748.222046 252.267349,745.571228 252.554932,739.152649 
	C252.703125,735.844727 252.558243,732.488586 251.500778,729.290588 
	C250.085144,725.009521 244.090149,720.661011 240.560944,721.261902 
	C235.404419,722.139893 231.553818,726.680176 231.306396,732.187500 
	C231.216187,734.195679 231.280701,736.184509 232.482422,738.767883 
z"/>
<path fill="#000000" opacity="1.000000" stroke="none" 
	d="
M544.564148,362.561279 
	C549.920715,367.198090 555.244629,370.240204 562.502197,367.955811 
	C565.385254,367.048340 569.036865,367.305267 570.517334,371.048004 
	C572.016541,374.838043 569.866699,376.993256 566.957886,379.300415 
	C559.689270,385.065704 552.265381,384.171356 544.487549,380.876831 
	C539.784363,378.884735 536.000427,375.645905 532.417297,372.167084 
	C527.902893,367.784119 528.035217,363.768372 530.409302,357.876465 
	C535.994934,344.013794 540.255005,329.715179 541.533997,314.703217 
	C541.871338,310.743622 542.801575,306.871582 542.735718,302.833221 
	C542.684448,299.689240 544.325745,297.481476 548.021484,297.665131 
	C551.433472,297.834625 553.100586,299.477264 553.321350,302.929169 
	C554.386963,319.591614 551.691406,335.690247 546.538635,351.497620 
	C545.407837,354.966644 542.911011,358.284210 544.564148,362.561279 
z"/>
<path fill="#000000" opacity="1.000000" stroke="none" 
	d="
M560.605530,402.473236 
	C576.742493,406.721100 589.685608,400.914001 601.240845,390.893005 
	C605.105652,387.541229 608.314026,383.432404 611.822693,379.669891 
	C614.137756,377.187347 616.826843,375.506042 620.167236,377.377167 
	C623.005615,378.967072 624.179871,384.614838 622.165100,387.699036 
	C608.864624,408.059692 587.083069,421.958557 561.057129,417.175079 
	C556.183594,416.279388 552.234863,413.451172 548.889587,409.832001 
	C547.222046,408.028046 545.905029,406.045532 547.757019,403.671143 
	C549.491943,401.446777 551.298401,398.988739 554.707825,400.045471 
	C556.599854,400.631897 558.381714,401.573334 560.605530,402.473236 
z"/>
<path fill="#000000" opacity="1.000000" stroke="none" 
	d="
M585.612305,254.524292 
	C598.753906,246.731125 611.797058,245.461868 624.858093,253.505615 
	C629.359802,256.278015 633.954895,259.464600 633.120972,265.961121 
	C632.468018,271.047546 627.678772,273.214478 623.657654,269.992126 
	C614.685242,262.802002 605.245300,261.871368 594.974365,266.906250 
	C593.000305,267.873962 590.900818,268.595398 588.297913,268.011475 
	C584.743958,267.214264 581.898132,265.921051 580.905090,262.333160 
	C579.853027,258.531799 582.778442,256.659882 585.612305,254.524292 
z"/>
<path fill="#000000" opacity="1.000000" stroke="none" 
	d="
M519.038208,331.281891 
	C512.020447,332.996094 509.635162,327.605255 506.487976,323.791351 
	C501.281921,317.482422 500.592621,310.106354 503.407043,302.761353 
	C506.560059,294.532745 517.904480,293.860138 523.116333,301.577240 
	C528.168945,309.058563 528.797119,317.207916 525.126648,325.609558 
	C523.951050,328.300476 522.676208,330.718719 519.038208,331.281891 
z"/>
<path fill="#000000" opacity="1.000000" stroke="none" 
	d="
M598.009521,324.004730 
	C590.005188,317.169556 588.103943,309.153229 591.372498,299.552185 
	C592.787170,295.396759 595.210754,292.876587 599.504944,292.751160 
	C604.176819,292.614685 608.975342,292.781647 611.817688,297.514282 
	C616.760010,305.743652 615.922729,314.056061 611.677002,322.176666 
	C609.696106,325.965546 603.548340,326.710602 598.009521,324.004730 
z"/>
<path fill="#000000" opacity="1.000000" stroke="none" 
	d="
M495.611328,258.417419 
	C504.954163,253.552109 514.081299,253.215149 523.264282,257.652740 
	C526.272888,259.106598 529.150146,260.686615 529.538513,264.690155 
	C530.122681,270.710846 526.841248,274.064667 520.922974,272.925568 
	C518.496033,272.458496 516.228516,271.200958 513.809753,270.645844 
	C508.652100,269.462128 504.020416,271.149872 499.447662,273.448730 
	C493.869812,276.252838 489.530487,275.333344 487.340027,271.232880 
	C485.134827,267.104858 486.987030,263.168335 492.632263,260.009552 
	C493.504120,259.521729 494.398407,259.073944 495.611328,258.417419 
z"/>
</svg>