<svg version="1.1" id="Layer_1" xmlns="http://www.w3.org/2000/svg" xmlns:xlink="http://www.w3.org/1999/xlink" x="0px" y="0px"
	 width="100%" viewBox="0 0 960 1024" enable-background="new 0 0 960 1024" xml:space="preserve">
<path fill="#000000" opacity="1.000000" stroke="none" 
	d="
M426.032532,769.355713 
	C409.363342,770.935547 393.174225,772.993164 376.920654,773.917175 
	C362.880737,774.715393 348.776062,774.990540 335.267029,769.171936 
	C327.570038,765.856628 322.731415,760.200012 318.468994,753.475342 
	C312.281128,743.712830 307.998962,733.019714 303.229034,722.586243 
	C290.074554,693.812622 277.231537,664.896667 264.277039,636.031738 
	C263.663940,634.665588 263.114197,633.265991 262.619995,631.852295 
	C260.868195,626.841187 261.795227,623.838745 266.653168,621.603088 
	C273.598969,618.406616 280.776672,615.715942 287.838470,612.768738 
	C292.446686,610.845520 296.973816,608.716492 301.635315,606.936401 
	C304.523773,605.833374 305.058014,604.206665 303.878174,601.539124 
	C301.520477,596.208618 298.886780,590.963196 297.011932,585.462830 
	C290.942200,567.655334 292.964600,568.774048 305.079193,561.497192 
	C328.443024,547.463257 353.427338,536.897156 378.753784,527.047607 
	C391.319489,522.160706 403.802032,517.059875 416.323242,512.058472 
	C417.883514,511.435242 419.190552,510.798920 419.775970,508.863281 
	C431.833740,468.995026 447.520233,430.405457 461.287201,391.139099 
	C470.982422,363.486298 479.832245,335.536163 489.607025,307.912476 
	C495.269348,291.910583 502.050568,276.305908 508.242401,260.488861 
	C509.330994,257.708038 511.262451,256.266205 514.463379,256.109283 
	C512.222900,249.319061 510.159760,243.066254 508.096619,236.813461 
	C507.531158,244.397476 508.191589,252.039337 502.110077,258.098022 
	C495.444489,264.738617 488.697571,263.196136 481.462769,258.544769 
	C478.792542,263.061676 477.930054,267.439789 478.696564,272.439545 
	C480.108643,281.650452 481.097321,290.894318 479.324432,300.237579 
	C477.299866,310.907227 471.499054,317.245148 461.105225,319.456543 
	C459.013641,319.901550 457.456635,320.693359 456.665863,322.895142 
	C446.928436,350.007172 434.882324,376.210876 425.409637,403.447662 
	C414.583466,434.576019 403.275269,465.530640 394.290283,497.265656 
	C393.838867,498.860077 393.174408,500.400757 392.525970,501.931244 
	C391.502655,504.346649 389.774017,505.896881 387.057098,504.965729 
	C384.381653,504.048828 383.858032,501.743927 384.438965,499.222870 
	C385.635071,494.031921 386.649567,488.776825 388.225067,483.699005 
	C403.678009,433.894745 421.247498,384.854095 441.534393,336.801697 
	C442.376587,334.806824 443.080872,332.752106 443.962891,330.775940 
	C447.715820,322.367767 449.739410,314.920258 443.080597,305.942444 
	C437.503052,298.422485 434.608276,288.680450 432.605682,279.137451 
	C432.311127,277.733673 432.196991,276.134796 430.781525,275.152161 
	C428.468842,275.114166 428.384399,277.157745 427.737396,278.533234 
	C424.336121,285.763733 421.585236,293.305908 417.394470,300.155914 
	C416.434723,301.724670 416.474060,303.241425 417.010803,304.928375 
	C420.099915,314.637665 421.871246,324.658600 422.628204,334.753418 
	C423.524017,346.699890 423.252960,358.696930 419.230133,370.225067 
	C417.896515,374.046692 415.832458,377.455475 412.265717,379.720520 
	C405.190674,384.213440 397.799438,382.874878 393.192413,375.729156 
	C389.952393,370.703766 387.409973,365.232452 384.445374,360.023254 
	C383.524719,358.405579 383.239105,356.088440 380.471649,355.759949 
	C378.771942,358.470062 380.135834,361.235199 380.517242,363.854034 
	C381.786011,372.565521 381.527985,381.114655 378.767303,389.541809 
	C376.480042,396.523834 370.602905,400.332123 363.715729,398.190002 
	C359.195221,396.783966 357.691559,398.710175 356.334259,402.216278 
	C342.002747,439.237061 324.034485,474.609039 307.175446,510.483459 
	C305.869659,513.262024 304.230225,516.341614 300.494812,514.746887 
	C296.967224,513.240906 297.495789,510.097504 298.605682,507.013519 
	C303.411713,493.659332 309.722198,480.967773 315.855530,468.214966 
	C326.616577,445.839844 336.220062,422.931458 346.945892,400.567535 
	C350.836487,392.455505 350.590179,386.960938 345.770569,379.713348 
	C335.299896,363.967651 331.536011,345.409149 325.843201,327.699707 
	C321.059845,312.819489 318.252350,297.303162 311.614227,283.024719 
	C309.546997,278.578094 307.360809,274.083618 302.775055,271.338196 
	C299.522888,274.564148 300.122284,278.005676 300.991119,281.423126 
	C303.014740,289.382599 306.968933,296.586853 309.999542,304.153229 
	C313.185120,312.106628 315.380554,320.213837 314.416901,328.930206 
	C313.523499,337.011017 307.302856,343.843903 299.115601,345.082214 
	C296.760254,345.438446 295.150543,345.975494 294.169342,348.387726 
	C285.361938,370.040009 273.222168,390.049561 263.151367,411.081696 
	C261.785034,413.935211 260.318756,416.759583 259.215088,419.715576 
	C257.742523,423.659546 255.526978,426.071381 249.576294,424.235321 
	C255.040359,444.767365 264.321045,462.614044 271.128479,481.348389 
	C274.353699,480.446198 274.599518,478.384521 275.433655,476.868195 
	C292.547729,445.758728 307.969604,413.801483 323.078003,381.686737 
	C324.777405,378.074432 326.394226,374.385590 328.953064,371.258972 
	C330.671143,369.159637 332.824463,367.788330 335.448090,369.520233 
	C337.838196,371.097961 337.486938,373.344574 336.428040,375.726807 
	C319.366180,414.111938 301.315735,452.026459 279.449554,487.925903 
	C276.217468,493.232300 276.749115,496.550323 278.676483,501.192963 
	C283.721344,513.344849 288.601135,525.565308 293.531830,537.764465 
	C294.217499,539.460876 294.824829,541.189270 295.459106,542.906189 
	C296.958435,546.964905 295.365387,549.896484 291.693359,551.445068 
	C287.734192,553.114685 285.254852,550.590881 283.845001,547.322693 
	C280.018890,538.453491 276.222717,529.559937 272.801605,520.529480 
	C259.057465,484.250214 244.854858,448.130981 230.271439,412.204254 
	C218.550232,383.328674 209.279297,353.543335 196.776382,325.035858 
	C189.900223,309.357727 180.907700,294.621399 173.485687,279.164490 
	C168.289642,268.343353 166.325836,257.010498 172.516281,245.587143 
	C177.305008,236.750427 184.793365,234.593124 193.402298,239.824417 
	C198.949692,243.195358 203.193817,247.799393 206.249603,253.507721 
	C217.451828,274.433746 226.088104,296.411743 233.239700,319.012787 
	C236.048645,327.889832 238.424454,336.996033 243.319733,345.019501 
	C245.529007,348.640564 247.724564,354.915405 252.581650,353.015167 
	C257.132690,351.234680 255.189209,344.972626 254.423004,340.733582 
	C251.984970,327.244843 247.042648,314.480408 242.283829,301.689301 
	C240.170090,296.007812 238.963593,290.177582 238.771011,284.157898 
	C238.483826,275.182129 241.305725,270.067688 247.491745,267.890930 
	C257.589142,264.337799 265.249786,266.048279 270.551392,273.626862 
	C276.738586,282.471375 279.756073,292.797211 283.192719,302.870575 
	C285.074310,308.385773 286.665802,313.997345 289.258942,319.240204 
	C290.668854,322.090851 292.396149,324.748962 294.687561,326.980927 
	C295.909454,328.171143 297.376221,329.282196 299.135742,328.444611 
	C300.993225,327.560364 300.758789,325.625336 300.491882,324.011383 
	C299.615173,318.708954 297.597778,313.790619 295.256348,308.974823 
	C291.091217,300.408173 287.734558,291.533569 286.149200,282.107239 
	C284.892883,274.637238 286.074951,267.459442 290.165863,261.019440 
	C293.299988,256.085632 297.133362,255.186325 302.625580,256.847321 
	C314.310883,260.381287 320.052063,269.587158 324.976135,279.655701 
	C330.654144,291.265900 333.166107,303.920441 336.967834,316.148743 
	C340.772369,328.386078 344.504944,340.645782 348.309845,352.883057 
	C350.852905,361.062012 354.952942,368.507690 359.442261,375.733765 
	C360.993286,378.230347 362.553467,380.887207 365.880829,382.232117 
	C368.089569,379.498566 367.858643,376.346985 367.390106,373.291687 
	C365.045349,358.002563 359.687378,343.801453 352.687958,330.006256 
	C342.601593,310.127045 336.771729,289.075562 338.945770,266.496063 
	C339.539185,260.332886 341.059570,254.302643 347.782410,251.355072 
	C353.900208,248.672775 358.862579,250.667404 363.297363,254.761078 
	C371.410400,262.250092 377.187866,271.177460 380.443817,281.866486 
	C384.974182,296.739441 387.112305,312.049377 389.072754,327.357910 
	C390.726654,340.272552 396.197510,351.523651 402.295685,362.648651 
	C402.782043,363.535950 403.470276,364.270599 404.861633,364.539978 
	C407.560791,363.218628 407.573273,360.418304 407.770569,357.860199 
	C409.211578,339.177917 406.350708,321.186890 400.525116,303.335083 
	C393.248047,281.035400 384.356659,259.249603 378.542816,236.494934 
	C375.447174,224.379013 374.225281,211.913528 374.994263,199.371552 
	C375.273529,194.816528 377.063934,190.607635 379.733765,186.893524 
	C385.394043,179.019287 396.282990,177.957672 404.424561,185.093704 
	C416.102539,195.329391 424.970673,207.869431 431.149231,222.063187 
	C439.075439,240.271774 442.729645,259.893127 449.006866,278.658142 
	C451.634033,286.511780 454.451569,294.318481 459.553223,301.440521 
	C463.177460,298.406769 462.869263,294.693542 462.488586,291.163696 
	C460.863647,276.095062 457.780975,261.397797 453.243073,246.848984 
	C448.886139,232.880539 440.234589,220.982941 435.911377,207.074478 
	C433.459229,199.185486 432.726135,191.366257 434.784546,183.495880 
	C437.729523,172.236008 447.745728,168.821106 457.253632,175.535904 
	C464.823059,180.881729 467.730621,189.003998 470.292175,197.394318 
	C474.536682,211.297272 480.980591,224.281128 487.368530,237.276764 
	C487.774292,238.102249 488.535736,238.752914 489.595276,240.054306 
	C490.211029,231.754517 486.427277,225.463470 484.076538,218.829193 
	C477.635986,200.652588 470.706482,182.648575 466.066162,163.871613 
	C463.992310,155.479614 461.451416,147.197525 458.936646,138.922028 
	C457.384247,133.813446 456.059906,128.688431 455.289612,123.393143 
	C453.997864,114.513298 456.054932,108.661652 461.674011,106.018562 
	C467.906952,103.086716 477.058350,105.207024 482.222748,110.953812 
	C486.614716,115.841125 489.622223,121.624069 492.225464,127.593292 
	C499.102814,143.363129 503.306030,160.010544 508.158173,176.448517 
	C516.972534,206.309372 526.393005,235.966782 538.387390,264.742706 
	C543.913452,278.000397 546.257080,292.253845 550.961060,305.740601 
	C559.294189,329.632660 566.416809,353.896515 573.823486,378.068390 
	C579.885437,397.851776 587.184570,417.119873 595.452087,436.055450 
	C597.940247,441.754364 596.333069,447.048279 591.545593,449.352051 
	C586.660522,451.702789 581.565308,449.807892 578.909363,443.947784 
	C575.134766,435.619202 571.847351,427.069794 568.016235,417.803314 
	C562.158142,434.462158 554.587219,449.677795 548.226624,466.102356 
	C555.064148,465.718933 560.358948,462.600067 566.119690,461.258453 
	C573.407043,459.561279 580.518188,457.119507 587.737732,455.115662 
	C593.755188,453.445526 597.777466,456.139832 598.026062,462.225952 
	C598.201782,466.527893 600.021606,470.288757 601.282654,474.214325 
	C607.135864,492.434967 611.578003,511.082825 618.023254,529.124634 
	C619.938171,534.485107 622.098877,539.624817 625.463074,544.300720 
	C629.702942,550.193848 627.359375,556.918213 620.322754,558.786194 
	C597.146057,564.938843 574.184326,571.812744 551.616943,579.888306 
	C532.186401,586.841370 513.036499,594.574219 493.687958,601.761719 
	C461.534729,613.705811 429.480621,625.898987 397.513245,638.336853 
	C378.605164,645.693665 359.197479,651.760742 339.473907,656.673462 
	C333.860413,658.071716 329.208527,655.593018 326.128876,649.671387 
	C320.986542,639.783508 315.904388,629.864380 310.591705,619.560425 
	C303.500366,620.656677 297.439301,624.704712 290.874512,627.277527 
	C277.880066,632.370361 277.815430,632.665039 283.535675,645.321411 
	C289.569702,658.672119 295.693115,671.993530 302.217529,685.108826 
	C310.604462,701.968018 317.887604,719.321411 325.852844,736.365845 
	C327.822845,740.581299 330.159302,744.640320 332.535217,748.648071 
	C336.697968,755.669678 343.877899,758.036560 351.156036,758.811951 
	C362.912933,760.064209 374.785187,759.320801 386.557007,758.265991 
	C405.246399,756.591309 423.894165,754.455994 442.578796,752.722900 
	C458.649048,751.232300 474.466675,747.973694 490.489319,746.182434 
	C502.898621,744.795044 515.312439,743.240906 527.687500,746.407288 
	C540.981995,749.808838 549.979736,758.559143 556.309021,770.207336 
	C561.081055,778.989685 564.241760,788.485657 566.893433,798.081848 
	C569.379822,798.979065 571.242126,797.635132 573.172729,796.819885 
	C579.712891,794.058472 584.884583,795.434814 587.786743,801.732544 
	C593.068481,813.193909 598.418579,824.584534 601.568359,836.992310 
	C605.747437,853.455078 611.843750,869.204407 621.439453,883.553162 
	C630.094788,896.495728 636.666626,910.650269 638.940552,926.207947 
	C640.994202,940.258728 637.435547,953.972534 620.451965,958.611145 
	C611.911377,960.943787 604.530823,966.115906 596.265259,969.236206 
	C582.284729,974.514099 573.220215,971.569763 565.219299,958.906494 
	C557.906433,947.332275 556.282532,934.350525 555.620117,921.109985 
	C554.753784,903.792603 554.031921,886.397522 546.228394,870.429138 
	C540.777527,859.275269 536.865906,847.669739 534.118896,835.605286 
	C532.500244,828.496277 532.899780,821.394043 533.710632,814.262085 
	C533.981934,811.875671 535.401123,810.303223 537.447144,809.301392 
	C539.238770,808.424194 541.104065,807.690491 542.961792,806.956421 
	C550.617493,803.931213 551.150696,803.093689 548.318298,795.250061 
	C545.946960,788.683411 543.636536,782.006897 540.367676,775.875610 
	C536.708801,769.012634 531.246460,763.707153 523.136841,761.934204 
	C510.338043,759.136169 497.653748,761.376404 484.950958,762.671570 
	C467.751251,764.425171 450.701294,767.526367 433.399597,768.391541 
	C431.084564,768.507385 428.789124,769.015076 426.032532,769.355713 
M464.053589,508.646393 
	C436.153534,518.613892 408.469604,529.136047 380.975433,540.186951 
	C358.093597,549.383972 335.419647,558.940491 313.716248,570.731812 
	C309.286072,573.138733 308.177765,575.576843 310.159332,580.131653 
	C313.412720,587.609863 316.468689,595.184021 319.316681,602.826233 
	C323.865875,615.033447 329.872223,626.547424 335.662476,638.169983 
	C337.595520,642.049988 339.881836,644.293152 344.988373,642.894653 
	C361.546906,638.359741 377.737915,632.685913 393.727478,626.590881 
	C405.688660,622.031494 417.506317,616.986938 429.525604,612.573059 
	C465.593048,599.328003 501.235535,584.960938 537.526978,572.293335 
	C558.741699,564.888367 579.849304,557.253479 601.568420,551.425354 
	C604.856201,550.543091 608.334900,549.941772 611.276550,547.704224 
	C603.377686,530.237244 598.602722,512.061218 593.644226,493.937012 
	C591.756470,487.036804 589.522095,480.231476 587.448486,473.382080 
	C586.606689,470.601562 585.212585,469.229370 581.953857,470.240997 
	C575.126343,472.360565 568.079651,473.816467 561.337891,476.162567 
	C529.294006,487.313690 497.079559,497.946594 464.053589,508.646393 
M477.445831,454.020477 
	C488.066071,426.883209 497.273254,399.236389 506.897858,371.744507 
	C513.764404,352.130768 522.203735,333.021881 526.544861,312.565704 
	C526.936646,310.719879 527.523193,308.766388 529.274902,308.004608 
	C532.481812,306.610046 531.923401,304.403564 531.237366,301.872894 
	C528.536194,291.907837 525.212219,282.146973 521.636047,272.471771 
	C520.617371,269.715607 519.261963,267.083893 517.931763,264.105835 
	C511.751221,274.120941 432.300598,499.493774 432.757385,505.925781 
	C438.954865,503.664337 444.964417,501.236145 451.129089,499.302490 
	C455.431274,497.953064 458.147278,495.355347 460.265320,491.476105 
	C466.744232,479.609680 472.114655,467.253082 477.445831,454.020477 
M602.074097,949.419556 
	C606.738281,947.641418 611.355469,945.725098 616.077820,944.117920 
	C622.949890,941.779053 624.469788,939.387024 623.238953,932.277283 
	C620.748535,917.891968 614.627380,904.831482 606.490234,893.089600 
	C598.002075,880.841187 592.656006,867.395142 587.461487,853.719177 
	C582.806885,841.464905 580.883362,828.237549 574.176270,816.702454 
	C573.106506,814.862610 572.457703,813.070007 569.811584,813.808594 
	C564.048523,815.417236 558.075012,815.994812 552.276489,817.578552 
	C547.256958,818.949524 545.496033,821.621216 546.124756,826.533508 
	C547.789917,839.544922 551.766296,851.807617 558.097046,863.269226 
	C564.082642,874.105957 566.647461,885.948792 568.229004,897.993713 
	C569.782837,909.827209 569.066101,921.887512 571.354614,933.673889 
	C572.660461,940.399292 574.521973,946.912720 578.583191,952.604858 
	C581.540771,956.750061 585.147705,957.629333 589.891907,955.714478 
	C593.942139,954.079773 597.553528,951.719971 602.074097,949.419556 
M544.722656,377.317413 
	C545.720154,373.797668 547.570679,371.000153 551.647644,369.938782 
	C546.541199,353.131744 542.481079,336.384613 535.730164,320.071411 
	C514.666199,377.618683 496.888702,435.643494 471.311005,492.003326 
	C481.750824,488.724152 491.212036,485.759857 500.667175,482.776245 
	C502.582306,482.171906 502.771484,480.339355 503.316284,478.807037 
	C506.885590,468.767853 510.276276,458.662201 514.013428,448.686218 
	C523.019470,424.645264 533.723999,401.328156 544.722656,377.317413 
M551.129944,433.734650 
	C553.500488,428.598572 555.862366,423.458466 558.244568,418.327789 
	C559.828430,414.916595 562.051636,412.501434 566.983154,413.986603 
	C561.352417,403.079559 558.682739,391.984467 554.852783,379.891205 
	C539.625305,412.635498 525.932922,444.235382 514.192261,478.199036 
	C523.783386,474.868591 531.976562,472.023560 539.044067,469.569427 
	C540.104065,456.021637 546.822693,445.661072 551.129944,433.734650 
M246.246231,404.584717 
	C244.004868,410.942261 244.779999,414.761444 249.215652,418.659088 
	C254.903839,403.640625 262.615875,389.663757 270.081390,375.568512 
	C275.453003,365.426605 281.132843,355.436859 285.295380,344.703979 
	C285.932983,343.059967 287.439026,341.171326 286.112396,339.540222 
	C283.257172,336.029785 280.665558,332.197205 276.139130,328.664185 
	C273.498962,336.248291 268.493927,341.882965 268.315887,349.598969 
	C268.182892,355.360840 265.911591,360.236328 261.693268,364.172607 
	C260.236298,365.532166 258.852966,366.785004 258.305328,368.924896 
	C255.250366,380.862183 250.904587,392.373016 246.246231,404.584717 
M419.124268,274.660950 
	C424.197357,264.267334 427.341614,253.784927 422.484894,242.236938 
	C419.875305,236.032013 418.490173,229.320953 415.015869,222.712372 
	C414.272797,223.987366 413.824554,224.626648 413.504791,225.324753 
	C409.366516,234.359604 407.137115,244.268585 401.068451,252.421524 
	C400.225342,253.554184 400.942963,254.689972 401.317993,255.742508 
	C404.331421,264.199341 407.340729,272.658478 410.481628,281.068237 
	C411.060242,282.617554 411.193634,284.834961 414.098145,284.957367 
	C416.222839,282.147614 417.302582,278.634918 419.124268,274.660950 
M392.109039,225.580917 
	C392.555725,230.296982 393.265076,234.917191 396.344116,238.925735 
	C397.279358,238.315201 397.875153,238.146469 398.056946,237.775101 
	C401.868439,229.987518 405.051056,221.945602 407.613037,213.662643 
	C408.026520,212.325943 407.801971,210.998337 406.920502,209.871078 
	C403.845795,205.939087 401.174652,201.657761 397.349609,198.368103 
	C395.909515,197.129517 394.538422,195.003723 392.270966,196.080444 
	C390.230713,197.049255 390.167816,199.319077 390.082855,201.335114 
	C389.751282,209.202347 390.932373,216.949097 392.109039,225.580917 
M357.210419,269.602448 
	C354.202423,266.644318 353.641479,269.161652 353.368011,271.465179 
	C352.041779,282.636536 354.939301,293.215271 358.124420,303.734283 
	C358.427612,304.735565 359.140594,305.456635 361.017609,305.212402 
	C363.724823,299.668945 367.798462,293.817444 366.558502,287.167175 
	C365.388672,280.893127 362.262451,274.928955 357.210419,269.602448 
M225.913895,361.592712 
	C226.847794,363.829346 227.081192,366.449097 229.793289,368.371857 
	C232.378860,364.235474 236.436081,359.664886 234.391129,355.442505 
	C230.577423,347.568115 226.986877,339.594696 223.430130,330.847046 
	C220.126694,336.457031 218.042068,341.279968 220.849701,347.261444 
	C222.883606,351.594513 224.064621,356.327911 225.913895,361.592712 
M201.358566,272.438782 
	C199.539444,269.866211 198.291016,270.573792 197.244171,273.097229 
	C195.730026,276.747162 195.117706,280.781860 192.665405,284.027496 
	C192.001068,284.906769 191.658859,285.820618 192.237396,286.759155 
	C194.443024,290.337128 195.658264,294.577820 198.993958,297.463318 
	C204.562653,292.237579 206.456818,283.952179 203.696182,277.579498 
	C203.038681,276.061737 202.353363,274.556000 201.358566,272.438782 
M246.612885,375.216431 
	C246.989471,373.945801 247.314941,372.657227 247.753433,371.408325 
	C248.637405,368.890564 248.414703,366.972351 245.562485,365.809937 
	C242.205780,364.441864 241.471420,367.004700 240.553650,369.022186 
	C238.839157,372.791016 237.362854,376.667847 235.769669,380.492310 
	C233.950653,384.858856 235.153061,389.239014 239.514420,392.832001 
	C243.106857,387.674683 244.152267,381.562134 246.612885,375.216431 
M219.331924,317.449432 
	C216.921448,311.069366 214.510956,304.689270 211.886307,297.742310 
	C204.729553,308.454315 205.578964,316.676117 214.302246,324.803223 
	C215.000351,321.728973 217.915970,320.570343 219.331924,317.449432 
M268.068176,304.422852 
	C267.419586,302.085022 267.259430,299.482178 264.762451,298.094177 
	C259.416718,304.696075 259.430023,316.187164 264.699585,322.850098 
	C265.696625,324.110779 267.028900,324.693878 267.942688,323.188599 
	C269.761932,320.191833 272.670532,317.487793 270.817535,313.258942 
	C269.690979,310.687988 269.106354,307.879578 268.068176,304.422852 
M367.308655,326.266022 
	C369.677490,329.893799 370.362183,334.589172 374.039154,337.625092 
	C375.982117,334.370514 373.341827,315.861145 370.508698,310.894897 
	C362.231659,318.882172 362.451263,316.160706 366.735229,325.165466 
	C366.806427,325.315216 366.896088,325.456207 367.308655,326.266022 
M188.982040,253.311462 
	C186.422729,251.694855 184.266876,251.880524 182.812393,254.782822 
	C180.570679,259.256012 182.669983,269.846680 186.678528,273.767212 
	C188.888519,269.568268 189.586441,264.964203 191.081909,260.639221 
	C192.145767,257.562500 191.878754,255.640869 188.982040,253.311462 
M484.945221,161.341751 
	C481.648987,150.646179 479.536896,139.534012 474.064728,129.602905 
	C478.864838,142.967453 482.363495,156.745270 486.625214,170.282913 
	C487.369049,167.262848 485.931366,164.750092 484.945221,161.341751 
M258.638214,281.814026 
	C257.116333,280.319214 255.035873,277.874329 253.664459,281.055054 
	C252.250122,284.335388 252.313843,288.252136 255.515839,291.969452 
	C257.213867,288.382355 260.140594,286.193085 258.638214,281.814026 
M452.042999,194.382339 
	C449.989929,192.181091 450.449554,194.369751 450.750214,195.230270 
	C452.396759,199.943207 454.183258,204.607254 455.921661,209.288101 
	C456.186676,209.193420 456.451660,209.098755 456.716675,209.004074 
	C455.261353,204.305344 453.806061,199.606598 452.042999,194.382339 
z"/>
<path fill="#000000" opacity="1.000000" stroke="none" 
	d="
M354.235596,457.348877 
	C360.997314,439.555054 367.567444,422.104980 374.263733,404.703522 
	C375.392853,401.769318 376.929901,398.964264 378.529388,396.247253 
	C379.945465,393.841736 382.233582,392.615692 384.877319,394.111755 
	C387.524353,395.609650 387.383820,398.001190 386.310242,400.648895 
	C371.606201,436.912567 359.174408,474.015320 345.748413,510.751190 
	C343.806396,516.064941 342.176880,521.492432 340.370270,526.856384 
	C339.353149,529.876282 337.475586,532.070740 334.070435,530.811035 
	C330.907715,529.641052 330.315613,526.954895 331.280853,523.784912 
	C336.616302,506.262054 342.868195,489.054291 349.054169,471.823273 
	C350.741882,467.122192 352.409515,462.413940 354.235596,457.348877 
z"/>
<path fill="#000000" opacity="1.000000" stroke="none" 
	d="
M302.591064,359.622009 
	C307.226807,350.919708 311.701447,342.552399 316.187073,334.190948 
	C316.579620,333.459229 316.989777,332.725372 317.485626,332.062805 
	C318.913818,330.154663 320.732849,329.196991 323.123260,330.115143 
	C325.743011,331.121307 325.988220,333.366486 325.272827,335.513306 
	C324.173004,338.813660 322.853210,342.077789 321.267853,345.173492 
	C305.564972,375.836792 288.914673,406.016907 274.365173,437.268799 
	C273.525177,439.073059 272.567657,440.856018 271.420319,442.475708 
	C269.864044,444.672668 268.078979,447.066406 264.909149,445.273987 
	C261.847076,443.542511 262.574036,440.862885 263.746918,438.280396 
	C268.564941,427.672058 273.286499,417.018066 278.250092,406.478119 
	C285.700226,390.658173 294.201141,375.376556 302.591064,359.622009 
z"/>
<path fill="#000000" opacity="1.000000" stroke="none" 
	d="
M530.876038,604.931030 
	C527.204346,606.605042 523.879089,608.115417 520.554016,609.626221 
	C518.856873,610.397339 517.208130,610.504883 516.313965,608.570251 
	C515.407104,606.608154 517.036438,606.045166 518.403931,605.353027 
	C531.778687,598.584229 545.775940,593.443848 560.161804,589.308228 
	C562.190979,588.724854 564.466431,588.253845 565.099792,590.854431 
	C565.747803,593.514832 563.301819,594.024841 561.371033,594.516235 
	C551.051147,597.142578 541.201599,601.143982 530.876038,604.931030 
z"/>
<path fill="#000000" opacity="1.000000" stroke="none" 
	d="
M275.149780,717.721313 
	C272.923492,712.496948 270.739319,707.652649 268.881378,702.686218 
	C268.305786,701.147644 267.601196,698.768860 270.016815,698.001648 
	C272.397827,697.245422 273.060150,699.419434 273.698090,701.126038 
	C278.267883,713.351013 283.782227,724.982666 293.760376,733.907593 
	C295.081940,735.089661 295.866150,736.674133 294.226166,738.209106 
	C292.569061,739.759888 291.014557,738.587952 289.828949,737.502625 
	C283.763885,731.950806 279.276764,725.193054 275.149780,717.721313 
z"/>
<path fill="#000000" opacity="1.000000" stroke="none" 
	d="
M266.414703,731.437378 
	C267.783051,733.987915 269.305573,735.930237 271.213928,737.599426 
	C272.390717,738.628662 273.351868,739.940186 272.045258,741.468201 
	C270.873596,742.838501 269.351807,742.765808 268.044434,741.664001 
	C261.513611,736.160461 259.271606,728.552795 257.939880,720.561035 
	C257.744659,719.389465 258.445618,718.220032 259.834412,718.032349 
	C261.415497,717.818787 262.340027,718.821594 262.787964,720.177185 
	C263.986328,723.803772 265.099518,727.458557 266.414703,731.437378 
z"/>
<path fill="#000000" opacity="1.000000" stroke="none" 
	d="
M551.425842,608.285339 
	C554.049622,607.572205 556.275085,606.892029 558.545410,606.433533 
	C559.894043,606.161255 561.347778,606.399170 561.761108,608.006958 
	C562.164124,609.574646 561.105347,610.581238 559.779236,611.021301 
	C554.272583,612.848999 548.745239,614.617981 543.192932,616.301331 
	C541.907837,616.690918 540.426514,616.660217 539.955688,614.942871 
	C539.536560,613.414307 540.375610,612.254150 541.683655,611.738708 
	C544.763428,610.525146 547.920593,609.508118 551.425842,608.285339 
z"/>
<path fill="#000000" opacity="1.000000" stroke="none" 
	d="
M555.216675,629.578979 
	C553.020325,630.365540 551.153625,631.000305 549.276611,631.603271 
	C548.245544,631.934570 547.273682,631.836914 546.759155,630.753418 
	C546.293091,629.771729 546.508301,628.790894 547.290039,628.044617 
	C549.006897,626.405518 551.209167,625.636719 553.397949,624.940735 
	C554.804626,624.493469 556.461670,624.152771 557.285461,625.916809 
	C558.099792,627.660522 556.979492,628.670898 555.216675,629.578979 
z"/>
</svg>